<svg xmlns="http://www.w3.org/2000/svg" width="426.29" height="694.789" viewBox="0 0 426.29 694.789">
  <g id="undraw_creative_draft_vb5x" transform="translate(-431.79 -16.495)" opacity="0.2">
    <path id="Trazado_4" data-name="Trazado 4" d="M883.3,91.488H853.007a22.495,22.495,0,0,1-20.827,30.991H699.221a22.495,22.495,0,0,1-20.827-30.991H650.1a47.348,47.348,0,0,0-47.348,47.348V738.928A47.348,47.348,0,0,0,650.1,786.276H883.3a47.348,47.348,0,0,0,47.348-47.348h0V138.835A47.348,47.348,0,0,0,883.3,91.487Z" transform="translate(-170.96 -74.993)" fill="#fff"/>
    <path id="Trazado_5" data-name="Trazado 5" d="M773.04,320.016a73,73,0,1,1,73-73,73,73,0,0,1-73,73Zm0-144a71,71,0,1,0,71,71,71,71,0,0,0-71-71Z" transform="translate(-170.96 -74.993)" fill="#3f3d56"/>
    <path id="Trazado_6" data-name="Trazado 6" d="M759.04,741.016a37,37,0,1,1,37-37,37,37,0,0,1-37,37Zm0-72a35,35,0,1,0,35,35,35,35,0,0,0-35-35Z" transform="translate(-170.96 -74.993)" fill="#3f3d56"/>
    <path id="Trazado_7" data-name="Trazado 7" d="M1029.04,523.411H879.461V373.833H1029.04Zm-147.579-2H1027.04V375.833H881.461Z" transform="translate(-170.96 -74.993)" fill="#3f3d56"/>
    <path id="Trazado_8" data-name="Trazado 8" d="M713.153,603.412H632.041V522.3h81.112Zm-79.112-2h77.112V524.3H634.041Z" transform="translate(-170.96 -74.993)" fill="#3f3d56"/>
    <circle id="Elipse_4" data-name="Elipse 4" cx="60" cy="60" r="60" transform="translate(502.081 100.023)" fill="#e6e6e6"/>
    <rect id="Rect치ngulo_2" data-name="Rect치ngulo 2" width="131.181" height="131.181" transform="translate(684.905 273.194)" fill="#28ba62"/>
    <rect id="Rect치ngulo_3" data-name="Rect치ngulo 3" width="70.322" height="70.322" transform="translate(554.378 504.344) rotate(180)" fill="#e6e6e6"/>
    <circle id="Elipse_5" data-name="Elipse 5" cx="30" cy="30" r="30" transform="translate(538.081 593.023)" fill="#28ba62"/>
  </g>
</svg>
