<svg xmlns="http://www.w3.org/2000/svg" width="865.573" height="539.504" viewBox="0 0 865.573 539.504">
  <g id="undraw_floating_re_xtcj" transform="translate(0 -71.999)" opacity="0.5">
    <path id="Trazado_1" data-name="Trazado 1" d="M475.131,273.96a1.421,1.421,0,0,1-1.416-1.321,50.211,50.211,0,0,0-49.941-46.526c-1.515,0-3.106.077-4.729.229a1.42,1.42,0,0,1-1.365-.708,59.662,59.662,0,0,0-109.105,12.976,1.414,1.414,0,0,1-1.4,1.025l-.378-.011c-.2-.007-.393-.014-.591-.014a42.078,42.078,0,0,0-41,33.223,1.421,1.421,0,0,1-1.39,1.128H168.634a1.421,1.421,0,1,1,0-2.841h94.044a44.945,44.945,0,0,1,43.482-34.351,62.5,62.5,0,0,1,113.527-13.333c1.4-.109,2.768-.164,4.087-.164a53.062,53.062,0,0,1,52.775,49.169,1.421,1.421,0,0,1-1.318,1.517C475.2,273.959,475.164,273.96,475.131,273.96Z" transform="translate(-167.214 -120.725)" fill="#cbcbcb"/>
    <path id="Trazado_2" data-name="Trazado 2" d="M458.227,292.176h-233a1.421,1.421,0,0,1,0-2.841h233a1.421,1.421,0,0,1,0,2.841Z" transform="translate(-167.214 -120.725)" fill="#cbcbcb"/>
    <path id="Trazado_3" data-name="Trazado 3" d="M282.057,312.777h-78.14a1.421,1.421,0,1,1,0-2.841h78.14a1.421,1.421,0,0,1,0,2.841Z" transform="translate(-167.214 -120.725)" fill="#cbcbcb"/>
    <path id="Trazado_4" data-name="Trazado 4" d="M355.114,589.211c0,57.76-60.554,85.4-60.554,85.4s-61.176-27.638-62.418-85.4c-.73-33.95,27.528-61.486,61.486-61.486a61.486,61.486,0,0,1,61.486,61.486Z" transform="translate(-167.214 -120.725)" fill="#e5e5e5"/>
    <path id="Trazado_5" data-name="Trazado 5" d="M147.842,557.3H106.851l-4.969-19.874H152.81Z" fill="#cbcbcb"/>
    <rect id="Rectángulo_1" data-name="Rectángulo 1" width="38.196" height="19.905" transform="translate(108.248 591.288)" fill="#fff"/>
    <path id="Trazado_6" data-name="Trazado 6" d="M313.968,732.228H275.151V711.7h38.817Zm-38.2-.621h37.575V712.323H275.772Z" transform="translate(-167.214 -120.725)" fill="#cbcbcb"/>
    <path id="Trazado_7" data-name="Trazado 7" d="M135.176,559.643H119.517l-1.8-2.824h19.253Z" fill="#cbcbcb"/>
    <rect id="Rectángulo_2" data-name="Rectángulo 2" width="0.621" height="30.433" transform="translate(107.161 557.299)" fill="#cbcbcb"/>
    <rect id="Rectángulo_3" data-name="Rectángulo 3" width="0.621" height="30.433" transform="translate(146.91 557.299)" fill="#cbcbcb"/>
    <path id="Trazado_8" data-name="Trazado 8" d="M300.785,657.814l-.379-.492c17.942-13.836,39.33-37.54,39.33-71.89a61.092,61.092,0,0,0-37.363-56.368l.242-.572a61.712,61.712,0,0,1,37.742,56.94C340.357,620.034,318.838,643.892,300.785,657.814Z" transform="translate(-167.214 -120.725)" fill="#cbcbcb"/>
    <path id="Trazado_9" data-name="Trazado 9" d="M280.911,657.814l-.379-.492c17.942-13.836,39.33-37.54,39.33-71.89a61.164,61.164,0,0,0-36.938-56.187l.246-.57a61.784,61.784,0,0,1,37.313,56.757C320.483,620.034,298.963,643.893,280.911,657.814Z" transform="translate(-167.214 -120.725)" fill="#cbcbcb"/>
    <path id="Trazado_10" data-name="Trazado 10" d="M306.345,657.814c-18.052-13.921-39.572-37.779-39.572-72.382a61.784,61.784,0,0,1,37.313-56.757l.246.57a61.164,61.164,0,0,0-36.938,56.187c0,34.35,21.388,58.054,39.33,71.89Z" transform="translate(-167.214 -120.725)" fill="#cbcbcb"/>
    <path id="Trazado_11" data-name="Trazado 11" d="M286.471,657.814c-18.053-13.921-39.572-37.779-39.572-72.382a61.669,61.669,0,0,1,37.995-57.046l.239.573a61.049,61.049,0,0,0-37.613,56.473c0,34.35,21.388,58.054,39.33,71.89Z" transform="translate(-167.214 -120.725)" fill="#cbcbcb"/>
    <rect id="Rectángulo_4" data-name="Rectángulo 4" width="0.621" height="130.425" transform="translate(126.104 407)" fill="#cbcbcb"/>
    <line id="Línea_1" data-name="Línea 1" y1="11.389" x2="11.389" transform="translate(108.248 586.994)" fill="#fff"/>
    <rect id="Rectángulo_5" data-name="Rectángulo 5" width="16.106" height="0.621" transform="translate(108.032 598.165) rotate(-45)" fill="#cbcbcb"/>
    <line id="Línea_2" data-name="Línea 2" y1="17.803" x2="16.932" transform="translate(108.248 586.8)" fill="#fff"/>
    <rect id="Rectángulo_6" data-name="Rectángulo 6" width="24.569" height="0.621" transform="translate(108.028 604.392) rotate(-46.444)" fill="#cbcbcb"/>
    <rect id="Rectángulo_7" data-name="Rectángulo 7" width="46.58" height="5.59" transform="translate(103.435 586.8)" fill="#fff"/>
    <path id="Trazado_12" data-name="Trazado 12" d="M317.539,713.426h-47.2v-6.211h47.2Zm-46.58-.621h45.959v-4.969H270.959Z" transform="translate(-167.214 -120.725)" fill="#cbcbcb"/>
    <path id="Trazado_13" data-name="Trazado 13" d="M472.3,442.831c0,38.124-39.969,56.366-39.969,56.366s-40.379-18.242-41.2-56.366c-.482-22.409,18.17-40.583,40.583-40.583A40.584,40.584,0,0,1,472.3,442.831Z" transform="translate(-167.214 -120.725)" fill="#e5e5e5"/>
    <path id="Trazado_14" data-name="Trazado 14" d="M278.65,380.726H251.594l-3.279-13.118H281.93Z" fill="#cbcbcb"/>
    <rect id="Rectángulo_8" data-name="Rectángulo 8" width="25.211" height="13.138" transform="translate(252.517 403.16)" fill="#fff"/>
    <path id="Trazado_15" data-name="Trazado 15" d="M445.146,537.228H419.525V523.68h25.621Zm-25.211-.41h24.8V524.09h-24.8Z" transform="translate(-167.214 -120.725)" fill="#cbcbcb"/>
    <path id="Trazado_16" data-name="Trazado 16" d="M270.29,382.273H259.954l-1.186-1.864h12.708Z" fill="#cbcbcb"/>
    <rect id="Rectángulo_9" data-name="Rectángulo 9" width="0.41" height="20.087" transform="translate(251.799 380.726)" fill="#cbcbcb"/>
    <rect id="Rectángulo_10" data-name="Rectángulo 10" width="0.41" height="20.087" transform="translate(278.035 380.726)" fill="#cbcbcb"/>
    <path id="Trazado_17" data-name="Trazado 17" d="M436.445,488.111l-.25-.325c11.843-9.133,25.96-24.778,25.96-47.451a40.323,40.323,0,0,0-24.661-37.205l.16-.378a40.732,40.732,0,0,1,24.912,37.583C462.564,463.175,448.36,478.923,436.445,488.111Z" transform="translate(-167.214 -120.725)" fill="#cbcbcb"/>
    <path id="Trazado_18" data-name="Trazado 18" d="M423.327,488.112l-.25-.325c11.843-9.133,25.96-24.778,25.96-47.451a40.371,40.371,0,0,0-24.381-37.085l.163-.376a40.78,40.78,0,0,1,24.628,37.462C449.446,463.175,435.242,478.923,423.327,488.112Z" transform="translate(-167.214 -120.725)" fill="#cbcbcb"/>
    <path id="Trazado_19" data-name="Trazado 19" d="M440.115,488.111C428.2,478.922,414,463.175,414,440.336a40.78,40.78,0,0,1,24.628-37.462l.163.376a40.371,40.371,0,0,0-24.381,37.085c0,22.673,14.117,38.318,25.96,47.451Z" transform="translate(-167.214 -120.725)" fill="#cbcbcb"/>
    <path id="Trazado_20" data-name="Trazado 20" d="M427,488.111c-11.915-9.189-26.119-24.936-26.119-47.775a40.7,40.7,0,0,1,25.078-37.653l.158.378a40.3,40.3,0,0,0-24.826,37.275c0,22.673,14.117,38.318,25.96,47.451Z" transform="translate(-167.214 -120.725)" fill="#cbcbcb"/>
    <rect id="Rectángulo_11" data-name="Rectángulo 11" width="0.41" height="86.086" transform="translate(264.302 281.522)" fill="#cbcbcb"/>
    <line id="Línea_3" data-name="Línea 3" y1="7.517" x2="7.517" transform="translate(252.517 400.326)" fill="#fff"/>
    <rect id="Rectángulo_12" data-name="Rectángulo 12" width="10.631" height="0.41" transform="translate(252.375 407.698) rotate(-45)" fill="#cbcbcb"/>
    <line id="Línea_4" data-name="Línea 4" y1="11.751" x2="11.175" transform="translate(252.517 400.198)" fill="#fff"/>
    <rect id="Rectángulo_13" data-name="Rectángulo 13" width="16.216" height="0.41" transform="translate(252.372 411.808) rotate(-46.444)" fill="#cbcbcb"/>
    <rect id="Rectángulo_14" data-name="Rectángulo 14" width="30.745" height="3.689" transform="translate(249.34 400.198)" fill="#fff"/>
    <path id="Trazado_21" data-name="Trazado 21" d="M447.5,524.818H416.348v-4.1H447.5Zm-30.745-.41h30.335v-3.279H416.758Z" transform="translate(-167.214 -120.725)" fill="#cbcbcb"/>
    <path id="Trazado_22" data-name="Trazado 22" d="M812.075,494.953a1.018,1.018,0,0,0,1.015-.947,35.991,35.991,0,0,1,35.8-33.349c1.086,0,2.226.055,3.39.164a1.018,1.018,0,0,0,.979-.508,42.765,42.765,0,0,1,78.205,9.3,1.014,1.014,0,0,0,1,.735l.271-.008c.141,0,.282-.01.424-.01a30.161,30.161,0,0,1,29.391,23.814,1.018,1.018,0,0,0,1,.808h68.224a1.018,1.018,0,0,0,0-2.037H964.359a32.216,32.216,0,0,0-31.168-24.622,44.8,44.8,0,0,0-81.375-9.557c-1-.078-1.984-.117-2.929-.117a38.034,38.034,0,0,0-37.829,35.243,1.018,1.018,0,0,0,.945,1.087Z" transform="translate(-167.214 -120.725)" fill="#cbcbcb"/>
    <path id="Trazado_23" data-name="Trazado 23" d="M824.192,508.01H991.2a1.018,1.018,0,1,0,0-2.037H824.192a1.018,1.018,0,1,0,0,2.037Z" transform="translate(-167.214 -120.725)" fill="#cbcbcb"/>
    <path id="Trazado_24" data-name="Trazado 24" d="M950.468,522.777h56.01a1.018,1.018,0,1,0,0-2.037h-56.01a1.018,1.018,0,1,0,0,2.037Z" transform="translate(-167.214 -120.725)" fill="#cbcbcb"/>
    <path id="Trazado_56" data-name="Trazado 56" d="M606.534,608.953a1.018,1.018,0,0,1-1.015-.947,35.991,35.991,0,0,0-35.8-33.349c-1.086,0-2.226.055-3.39.164a1.018,1.018,0,0,1-.979-.508,42.765,42.765,0,0,0-78.2,9.3,1.014,1.014,0,0,1-1,.735l-.271-.008c-.141,0-.282-.01-.424-.01a30.161,30.161,0,0,0-29.391,23.814,1.018,1.018,0,0,1-1,.808H386.841a1.018,1.018,0,0,1,0-2.037H454.25a32.216,32.216,0,0,1,31.168-24.622,44.8,44.8,0,0,1,81.375-9.557c1-.078,1.984-.117,2.929-.117a38.034,38.034,0,0,1,37.829,35.243,1.018,1.018,0,0,1-.945,1.087Z" transform="translate(-167.214 -120.725)" fill="#cbcbcb"/>
    <path id="Trazado_57" data-name="Trazado 57" d="M594.417,622.01H427.407a1.018,1.018,0,1,1,0-2.037h167.01a1.018,1.018,0,1,1,0,2.037Z" transform="translate(-167.214 -120.725)" fill="#cbcbcb"/>
    <path id="Trazado_58" data-name="Trazado 58" d="M468.141,636.777h-56.01a1.018,1.018,0,1,1,0-2.037h56.01a1.018,1.018,0,1,1,0,2.037Z" transform="translate(-167.214 -120.725)" fill="#cbcbcb"/>
  </g>
</svg>
